<svg id="图层_1" data-name="图层 1" xmlns="http://www.w3.org/2000/svg" viewBox="0 0 31.98 31.98"><defs><style>.cls-1{fill:#a2b0b8;}</style></defs><title>已到期</title><path class="cls-1" d="M16,32A16,16,0,1,1,32,16,16,16,0,0,1,16,32ZM16,3.08A12.92,12.92,0,1,0,28.92,16,12.91,12.91,0,0,0,16,3.08Zm5.64,18.56a1.61,1.61,0,0,1-2.26,0L16,18.25l-3.38,3.39a1.6,1.6,0,0,1-2.26-2.26L13.75,16l-3.39-3.38a1.6,1.6,0,1,1,2.26-2.26L16,13.74l3.38-3.38a1.6,1.6,0,0,1,2.26,2.26L18.25,16l3.39,3.39A1.59,1.59,0,0,1,21.64,21.64Z" transform="translate(-0.01 -0.01)"/></svg>