<svg xmlns="http://www.w3.org/2000/svg" width="16" height="16" viewBox="0 0 16 16">
  <metadata><?xpacket begin="﻿" id="W5M0MpCehiHzreSzNTczkc9d"?>
<x:xmpmeta xmlns:x="adobe:ns:meta/" x:xmptk="Adobe XMP Core 5.6-c140 79.160451, 2017/05/06-01:08:21        ">
   <rdf:RDF xmlns:rdf="http://www.w3.org/1999/02/22-rdf-syntax-ns#">
      <rdf:Description rdf:about=""/>
   </rdf:RDF>
</x:xmpmeta>
                                                                                                    
                                                                                                    
                                                                                                    
                                                                                                    
                                                                                                    
                                                                                                    
                                                                                                    
                                                                                                    
                                                                                                    
                                                                                                    
                                                                                                    
                                                                                                    
                                                                                                    
                                                                                                    
                                                                                                    
                                                                                                    
                                                                                                    
                                                                                                    
                                                                                                    
                                                                                                    
                           
<?xpacket end="w"?></metadata>
<defs>
    <style>
      .cls-1 {
        fill: #60a7f5;
        fill-rule: evenodd;
      }
    </style>
  </defs>
  <path id="矩形_5" data-name="矩形 5" class="cls-1" d="M16,8H15v8H2V8H1V4H4.511A2.491,2.491,0,1,1,8.5,1.014,2.491,2.491,0,1,1,12.489,4H16V8Zm-2,7V12H9v3h5ZM9,11h5V8H9v3ZM3,15H8V12H3v3Zm0-4H8V8H3v3ZM6.5,1A1.5,1.5,0,1,0,8,2.5,1.5,1.5,0,0,0,6.5,1Zm2,2.983C8.494,3.988,8.492,4,8.489,4H8.511ZM10.5,1A1.5,1.5,0,1,0,12,2.5,1.5,1.5,0,0,0,10.5,1ZM15,5H2V7H15V5Z"/>
</svg>
