<svg xmlns="http://www.w3.org/2000/svg" width="52" height="52" viewBox="0 0 52 52">
  <metadata><?xpacket begin="﻿" id="W5M0MpCehiHzreSzNTczkc9d"?>
<x:xmpmeta xmlns:x="adobe:ns:meta/" x:xmptk="Adobe XMP Core 5.6-c138 79.159824, 2016/09/14-01:09:01        ">
   <rdf:RDF xmlns:rdf="http://www.w3.org/1999/02/22-rdf-syntax-ns#">
      <rdf:Description rdf:about=""/>
   </rdf:RDF>
</x:xmpmeta>
                                                                                                    
                                                                                                    
                                                                                                    
                                                                                                    
                                                                                                    
                                                                                                    
                                                                                                    
                                                                                                    
                                                                                                    
                                                                                                    
                                                                                                    
                                                                                                    
                                                                                                    
                                                                                                    
                                                                                                    
                                                                                                    
                                                                                                    
                                                                                                    
                                                                                                    
                                                                                                    
                           
<?xpacket end="w"?></metadata>
<defs>
    <style>
      .cls-1 {
        fill: #0a457f;
        fill-rule: evenodd;
      }
    </style>
  </defs>
  <path id="home-规则引擎-thin.svg" class="cls-1" d="M47,36a4.975,4.975,0,0,1-3.8-8.219L36.242,18.2a6.942,6.942,0,0,1-5.673.357L23.985,30.508a9,9,0,1,1-11.41,1.2L6.913,23.618A5.017,5.017,0,1,1,8.569,22.5l5.562,7.943A8.933,8.933,0,0,1,22.2,29.6l6.61-12a7,7,0,1,1,9.05-.571l6.913,9.515A4.946,4.946,0,0,1,47,26,5,5,0,0,1,47,36ZM5,16a3,3,0,1,0,3,3A3,3,0,0,0,5,16ZM19,31a7,7,0,1,0,7,7A7,7,0,0,0,19,31ZM33,7a5,5,0,1,0,5,5A5,5,0,0,0,33,7ZM47,28a3,3,0,1,0,3,3A3,3,0,0,0,47,28Z"/>
</svg>
