<svg xmlns="http://www.w3.org/2000/svg" width="50" height="50" viewBox="0 0 50 50">
  <metadata><?xpacket begin="﻿" id="W5M0MpCehiHzreSzNTczkc9d"?>
<x:xmpmeta xmlns:x="adobe:ns:meta/" x:xmptk="Adobe XMP Core 5.6-c138 79.159824, 2016/09/14-01:09:01        ">
   <rdf:RDF xmlns:rdf="http://www.w3.org/1999/02/22-rdf-syntax-ns#">
      <rdf:Description rdf:about=""/>
   </rdf:RDF>
</x:xmpmeta>
                                                                                                    
                                                                                                    
                                                                                                    
                                                                                                    
                                                                                                    
                                                                                                    
                                                                                                    
                                                                                                    
                                                                                                    
                                                                                                    
                                                                                                    
                                                                                                    
                                                                                                    
                                                                                                    
                                                                                                    
                                                                                                    
                                                                                                    
                                                                                                    
                                                                                                    
                                                                                                    
                           
<?xpacket end="w"?></metadata>
<defs>
    <style>
      .cls-1 {
        fill: #0a457f;
        fill-rule: evenodd;
      }
    </style>
  </defs>
  <path id="home-时序数据库-thin.svg_" data-name="home-时序数据库-thin.svg " class="cls-1" d="M26,50C15.186,50,5.919,46.7,2,42V37c0,6.075,10.745,11,24,11s24-4.925,24-11v5C46.081,46.7,36.814,50,26,50Zm0-11C15.186,39,5.919,35.7,2,31V26c0,6.075,10.745,11,24,11s24-4.925,24-11v5C46.081,35.7,36.814,39,26,39Zm0-11C12.745,28,2,22.18,2,15S12.745,2,26,2,50,7.82,50,15,39.255,28,26,28ZM26,4C13.85,4,4,8.925,4,15s9.85,11,22,11,22-4.925,22-11S38.15,4,26,4ZM17.34,20.732L16.34,19,25,14H41v2H25.536Z" transform="translate(-1 -1)"/>
</svg>
