<svg id="home-规则引擎.svg" xmlns="http://www.w3.org/2000/svg" width="22" height="22" viewBox="0 0 22 22">
  <metadata><?xpacket begin="﻿" id="W5M0MpCehiHzreSzNTczkc9d"?>
<x:xmpmeta xmlns:x="adobe:ns:meta/" x:xmptk="Adobe XMP Core 5.6-c138 79.159824, 2016/09/14-01:09:01        ">
   <rdf:RDF xmlns:rdf="http://www.w3.org/1999/02/22-rdf-syntax-ns#">
      <rdf:Description rdf:about=""/>
   </rdf:RDF>
</x:xmpmeta>
                                                                                                    
                                                                                                    
                                                                                                    
                                                                                                    
                                                                                                    
                                                                                                    
                                                                                                    
                                                                                                    
                                                                                                    
                                                                                                    
                                                                                                    
                                                                                                    
                                                                                                    
                                                                                                    
                                                                                                    
                                                                                                    
                                                                                                    
                                                                                                    
                                                                                                    
                                                                                                    
                           
<?xpacket end="w"?></metadata>
<defs>
    <style>
      .cls-1 {
        fill: #0a457f;
        fill-rule: evenodd;
      }
    </style>
  </defs>
  <path id="椭圆_23_拷贝" data-name="椭圆 23 拷贝" class="cls-1" d="M27,22a2,2,0,0,1-2-2,1.979,1.979,0,0,1,.216-0.887l-3.139-4.321a2.855,2.855,0,0,1-1.63.152l-2.73,5.135a4,4,0,1,1-6.093.8L8.9,16.99a2,2,0,1,1,1.788-.933L13.1,19.5a3.784,3.784,0,0,1,2.855-.372l2.764-5.2a3,3,0,1,1,4.874-.45l3.293,4.532c0.038,0,.074-0.011.113-0.011A2,2,0,0,1,27,22ZM13,23a2,2,0,1,0,2-2A2,2,0,0,0,13,23Z" transform="translate(-7 -7)"/>
</svg>
