<svg id="home-时序数据库.svg" xmlns="http://www.w3.org/2000/svg" width="20" height="20" viewBox="0 0 20 20">
  <metadata><?xpacket begin="﻿" id="W5M0MpCehiHzreSzNTczkc9d"?>
<x:xmpmeta xmlns:x="adobe:ns:meta/" x:xmptk="Adobe XMP Core 5.6-c138 79.159824, 2016/09/14-01:09:01        ">
   <rdf:RDF xmlns:rdf="http://www.w3.org/1999/02/22-rdf-syntax-ns#">
      <rdf:Description rdf:about=""/>
   </rdf:RDF>
</x:xmpmeta>
                                                                                                    
                                                                                                    
                                                                                                    
                                                                                                    
                                                                                                    
                                                                                                    
                                                                                                    
                                                                                                    
                                                                                                    
                                                                                                    
                                                                                                    
                                                                                                    
                                                                                                    
                                                                                                    
                                                                                                    
                                                                                                    
                                                                                                    
                                                                                                    
                                                                                                    
                                                                                                    
                           
<?xpacket end="w"?></metadata>
<defs>
    <style>
      .cls-1 {
        fill: #0a457f;
        fill-rule: evenodd;
      }
    </style>
  </defs>
  <path id="矩形_111_拷贝_4" data-name="矩形 111 拷贝 4" class="cls-1" d="M18,27c-3.982,0-7.391-1.172-9-2.857V22h1c0,1.657,3.582,3,8,3s8-1.343,8-3h1v2.143C25.391,25.828,21.982,27,18,27ZM9,20.143V18h1c0,1.657,3.582,3,8,3s8-1.343,8-3h1v2.143C25.391,21.828,21.982,23,18,23S10.609,21.828,9,20.143ZM18,19c-4.971,0-9-2.239-9-5s4.029-5,9-5,9,2.239,9,5S22.971,19,18,19Zm0-8c-3.866,0-7,1.343-7,3,0,1.129,1.472,2.1,3.621,2.612l-0.854-1.478L17,13.268V13h5v2H18l-2.961,1.709A15.046,15.046,0,0,0,18,17c3.866,0,7-1.343,7-3S21.866,11,18,11Z" transform="translate(-8 -8)"/>
</svg>
