<svg xmlns="http://www.w3.org/2000/svg" width="52" height="52" viewBox="0 0 52 52">
  <metadata><?xpacket begin="﻿" id="W5M0MpCehiHzreSzNTczkc9d"?>
<x:xmpmeta xmlns:x="adobe:ns:meta/" x:xmptk="Adobe XMP Core 5.6-c138 79.159824, 2016/09/14-01:09:01        ">
   <rdf:RDF xmlns:rdf="http://www.w3.org/1999/02/22-rdf-syntax-ns#">
      <rdf:Description rdf:about=""/>
   </rdf:RDF>
</x:xmpmeta>
                                                                                                    
                                                                                                    
                                                                                                    
                                                                                                    
                                                                                                    
                                                                                                    
                                                                                                    
                                                                                                    
                                                                                                    
                                                                                                    
                                                                                                    
                                                                                                    
                                                                                                    
                                                                                                    
                                                                                                    
                                                                                                    
                                                                                                    
                                                                                                    
                                                                                                    
                                                                                                    
                           
<?xpacket end="w"?></metadata>
<defs>
    <style>
      .cls-1 {
        fill: #0a457f;
        fill-rule: evenodd;
      }
    </style>
  </defs>
  <path id="NAS-大.svg" class="cls-1" d="M339,1406H303a2,2,0,0,1-2-2v-36a2,2,0,0,1,2-2h11.926l5,5H339a2,2,0,0,1,2,2v31A2,2,0,0,1,339,1406Zm0-33H319v-0.1l-4.9-4.9H303v14h36v-9Zm0,11H303v20h36v-20Zm-8,32H293a2,2,0,0,1-2-2v-34a2,2,0,0,1,2-2v36h40A2,2,0,0,1,331,1416Z" transform="translate(-290 -1365)"/>
</svg>
