<svg id="home-设备接入.svg" xmlns="http://www.w3.org/2000/svg" width="20" height="20" viewBox="0 0 20 20">
  <metadata><?xpacket begin="﻿" id="W5M0MpCehiHzreSzNTczkc9d"?>
<x:xmpmeta xmlns:x="adobe:ns:meta/" x:xmptk="Adobe XMP Core 5.6-c138 79.159824, 2016/09/14-01:09:01        ">
   <rdf:RDF xmlns:rdf="http://www.w3.org/1999/02/22-rdf-syntax-ns#">
      <rdf:Description rdf:about=""/>
   </rdf:RDF>
</x:xmpmeta>
                                                                                                    
                                                                                                    
                                                                                                    
                                                                                                    
                                                                                                    
                                                                                                    
                                                                                                    
                                                                                                    
                                                                                                    
                                                                                                    
                                                                                                    
                                                                                                    
                                                                                                    
                                                                                                    
                                                                                                    
                                                                                                    
                                                                                                    
                                                                                                    
                                                                                                    
                                                                                                    
                           
<?xpacket end="w"?></metadata>
<defs>
    <style>
      .cls-1 {
        fill: #0a457f;
        fill-rule: evenodd;
      }
    </style>
  </defs>
  <path id="椭圆_22" data-name="椭圆 22" class="cls-1" d="M25,26V18H24v1H23v8a1,1,0,0,1-1,1H10a1,1,0,0,1-1-1V9a1,1,0,0,1,1-1H22a1,1,0,0,1,1,1v6h1v1h3V26H25ZM21,10H11V26H21V10Zm-3,5H14V13h4v2Zm-2,4a2,2,0,1,1-2,2A2,2,0,0,1,16,19Z" transform="translate(-8 -8)"/>
</svg>
