<svg xmlns="http://www.w3.org/2000/svg" width="48" height="56" viewBox="0 0 48 56">
  <metadata><?xpacket begin="﻿" id="W5M0MpCehiHzreSzNTczkc9d"?>
<x:xmpmeta xmlns:x="adobe:ns:meta/" x:xmptk="Adobe XMP Core 5.6-c140 79.160451, 2017/05/06-01:08:21        ">
   <rdf:RDF xmlns:rdf="http://www.w3.org/1999/02/22-rdf-syntax-ns#">
      <rdf:Description rdf:about=""/>
   </rdf:RDF>
</x:xmpmeta>
                                                                                                    
                                                                                                    
                                                                                                    
                                                                                                    
                                                                                                    
                                                                                                    
                                                                                                    
                                                                                                    
                                                                                                    
                                                                                                    
                                                                                                    
                                                                                                    
                                                                                                    
                                                                                                    
                                                                                                    
                                                                                                    
                                                                                                    
                                                                                                    
                                                                                                    
                                                                                                    
                           
<?xpacket end="w"?></metadata>
<defs>
    <style>
      .cls-1 {
        fill: #fff;
        fill-rule: evenodd;
      }
    </style>
  </defs>
  <path id="矩形_3_拷贝" data-name="矩形 3 拷贝" class="cls-1" d="M45,48H3a2,2,0,0,1-2-2V22a1.994,1.994,0,0,1,1.343-1.881L11,8H37l8.657,12.119A1.994,1.994,0,0,1,47,22V46A2,2,0,0,1,45,48ZM35.87,10H12.13L5,20H43ZM45,22H3V46H45V22ZM27,25a2.991,2.991,0,0,1,2.816,2H34v2H29.816a2.983,2.983,0,0,1-5.633,0H14V27H24.184A2.991,2.991,0,0,1,27,25Zm0,4a1,1,0,1,0-1-1A1,1,0,0,0,27,29Zm-7,2a2.991,2.991,0,0,1,2.816,2H34v2H22.816a2.983,2.983,0,0,1-5.633,0H14V33h3.184A2.991,2.991,0,0,1,20,31Zm0,4a1,1,0,1,0-1-1A1,1,0,0,0,20,35Zm8,2a2.991,2.991,0,0,1,2.816,2H34v2H30.816a2.983,2.983,0,0,1-5.633,0H14V39H25.184A2.991,2.991,0,0,1,28,37Zm0,4a1,1,0,1,0-1-1A1,1,0,0,0,28,41Z"/>
</svg>
