<svg xmlns="http://www.w3.org/2000/svg" width="16" height="16" viewBox="0 0 16 16">
  <metadata><?xpacket begin="﻿" id="W5M0MpCehiHzreSzNTczkc9d"?>
<x:xmpmeta xmlns:x="adobe:ns:meta/" x:xmptk="Adobe XMP Core 5.6-c140 79.160451, 2017/05/06-01:08:21        ">
   <rdf:RDF xmlns:rdf="http://www.w3.org/1999/02/22-rdf-syntax-ns#">
      <rdf:Description rdf:about=""/>
   </rdf:RDF>
</x:xmpmeta>
                                                                                                    
                                                                                                    
                                                                                                    
                                                                                                    
                                                                                                    
                                                                                                    
                                                                                                    
                                                                                                    
                                                                                                    
                                                                                                    
                                                                                                    
                                                                                                    
                                                                                                    
                                                                                                    
                                                                                                    
                                                                                                    
                                                                                                    
                                                                                                    
                                                                                                    
                                                                                                    
                           
<?xpacket end="w"?></metadata>
<defs>
    <style>
      .cls-1 {
        fill: #b3bdc5;
        fill-rule: evenodd;
      }
    </style>
  </defs>
  <path id="圆角矩形_2" data-name="圆角矩形 2" class="cls-1" d="M14,11c-3.01,4.541-6,5-6,5s-2.99-.459-6-5C0.88,9.31,1,2,1,2a4.245,4.245,0,0,0,2.9.026A14.032,14.032,0,0,0,8,0a14.031,14.031,0,0,0,4.1,2.026A4.245,4.245,0,0,0,15,2S15.12,9.31,14,11ZM12.739,5.233a0.865,0.865,0,0,0-1.223,0L7.442,9.306,4.617,7.2a1.076,1.076,0,0,0-1.391.108,0.811,0.811,0,0,0,.122,1.235L6.374,10.8a1.086,1.086,0,0,0,1.1.1,0.857,0.857,0,0,0,.983-0.159l4.281-4.281A0.865,0.865,0,0,0,12.739,5.233Z"/>
</svg>
