<?xml version="1.0" encoding="UTF-8"?>
<svg width="148px" height="68px" viewBox="0 0 148 68" version="1.1" xmlns="http://www.w3.org/2000/svg" xmlns:xlink="http://www.w3.org/1999/xlink">
    <!-- Generator: Sketch 39.1 (31720) - http://www.bohemiancoding.com/sketch -->
    <title>Slice</title>
    <desc>Created with Sketch.</desc>
    <defs></defs>
    <g id="Page-1" stroke="none" stroke-width="1" fill="none" fill-rule="evenodd">
        <path d="M137.303149,44.4078064 C137.260749,44.4659224 137.191992,44.5160167 137.096878,44.5580894 C137.001601,44.6001621 136.869325,44.6317576 136.700216,44.6530395 C136.530943,44.673994 136.319434,44.6846349 136.065524,44.6846349 C135.800974,44.6846349 135.584062,44.673994 135.414952,44.6530395 C135.245679,44.6317576 135.113404,44.6001621 135.01829,44.5580894 C134.923013,44.5160167 134.854092,44.4659224 134.81202,44.4078064 C134.769619,44.3500178 134.748501,44.2788053 134.748501,44.1941687 L134.748501,35.8559163 C134.748501,35.0437658 134.684983,34.3899201 134.55811,33.8940516 C134.431073,33.3983468 134.245921,32.9712352 134.002652,32.6123894 C133.75922,32.2538711 133.444575,31.9794982 133.058554,31.789598 C132.672205,31.5996979 132.225449,31.5047479 131.71763,31.5047479 C131.061492,31.5047479 130.405846,31.7368844 129.750035,32.2009937 C129.094061,32.6652668 128.406492,33.3456331 127.687163,34.2420926 L127.687163,44.1941687 C127.687163,44.2788053 127.665882,44.3498541 127.623645,44.4078064 C127.581245,44.4659224 127.512652,44.5160167 127.417374,44.5580894 C127.322097,44.6001621 127.189822,44.6317576 127.020712,44.6530395 C126.851439,44.673994 126.634364,44.6846349 126.370141,44.6846349 C126.116231,44.6846349 125.904558,44.673994 125.735449,44.6530395 C125.566175,44.6317576 125.431281,44.6001621 125.330765,44.5580894 C125.230085,44.5160167 125.161492,44.4659224 125.124494,44.4078064 C125.087333,44.3500178 125.068997,44.2788053 125.068997,44.1941687 L125.068997,29.9542788 C125.068997,29.8699697 125.084877,29.7987572 125.116636,29.7406412 C125.148395,29.6828526 125.211914,29.6299753 125.307027,29.5825002 C125.402141,29.5350252 125.523775,29.5034297 125.67193,29.4875502 C125.819921,29.4716706 126.015551,29.4638127 126.258984,29.4638127 C126.491611,29.4638127 126.684785,29.4716706 126.838179,29.4875502 C126.991409,29.5034297 127.110424,29.5350252 127.195224,29.5825002 C127.279697,29.6299753 127.340596,29.6828526 127.377757,29.7406412 C127.414755,29.7987572 127.433254,29.8699697 127.433254,29.9542788 L127.433254,31.8370731 C128.237055,30.9406135 129.038401,30.2839847 129.837291,29.8671867 C130.635854,29.4505524 131.442438,29.2421534 132.257208,29.2421534 C133.209328,29.2421534 134.010674,29.4030774 134.661245,29.7247616 C135.311817,30.0466096 135.837971,30.4763405 136.240199,31.0142817 C136.6421,31.5522229 136.930388,32.1826586 137.105064,32.9049338 C137.279575,33.6275366 137.366831,34.49502 137.366831,35.5077115 L137.366831,44.194005 C137.366504,44.2788053 137.345222,44.3498541 137.303149,44.4078064 L137.303149,44.4078064 Z M114.090315,44.9138247 C109.738,44.9138247 106.209623,41.3957612 106.209623,37.0558886 C106.209623,32.7161797 109.738,29.1979525 114.090315,29.1979525 C118.442793,29.1979525 121.97117,32.716016 121.97117,37.0558886 C121.97117,41.3957612 118.442793,44.9138247 114.090315,44.9138247 L114.090315,44.9138247 Z M114.090315,31.7902529 C111.173711,31.7902529 108.809454,34.1477974 108.809454,37.0558886 C108.809454,39.9639798 111.173874,42.3215243 114.090315,42.3215243 C117.006919,42.3215243 119.371175,39.9639798 119.371175,37.0558886 C119.371339,34.1477974 117.006919,31.7902529 114.090315,31.7902529 L114.090315,31.7902529 Z M103.625999,25.506687 L103.625999,25.506687 L102.186524,26.94207 L102.186524,26.94207 C101.987783,27.1403192 101.665444,27.1403192 101.466704,26.94207 L101.466704,26.94207 L100.00922,25.4886792 L100.010203,25.487697 C99.8293065,25.2884655 99.8345451,24.9810238 100.027228,24.7888318 L100.027228,24.7888318 L101.466704,23.3534488 L101.466704,23.3534488 C101.659387,23.1612568 101.967811,23.1560181 102.167534,23.3364233 L102.168352,23.3356047 L102.18636,23.3534488 L102.18636,23.3534488 L102.18636,23.3534488 L103.625836,24.7888318 L103.625836,24.7888318 C103.824903,24.987081 103.824903,25.3084378 103.625999,25.506687 L103.625999,25.506687 L103.625999,25.506687 Z M95.671476,43.7037026 C95.1741342,44.0939801 94.5818422,44.3894712 93.8942728,44.5896849 C93.2065397,44.7898985 92.4502133,44.8902509 91.6251301,44.8902509 C91.1173109,44.8902509 90.633393,44.8506338 90.1732126,44.7715633 C89.7130323,44.6924929 89.3004906,44.5921405 88.935424,44.4709973 C88.5705211,44.3498541 88.2609511,44.2233086 88.0072053,44.091197 C87.7532957,43.9594129 87.5681431,43.8407253 87.4517474,43.7351343 C87.335188,43.6298707 87.2507152,43.4820433 87.1978379,43.2921432 C87.1447968,43.102243 87.11844,42.8439134 87.11844,42.5168268 C87.11844,42.3166131 87.1289172,42.1476675 87.1501991,42.010481 C87.1713173,41.8734583 87.1978379,41.7627923 87.229597,41.6781558 C87.2613562,41.5938467 87.3062119,41.5332751 87.3644916,41.4962773 C87.4224439,41.4594433 87.4887452,41.4409444 87.5629045,41.4409444 C87.6791365,41.4409444 87.8510288,41.5121569 88.0785815,41.654582 C88.3059706,41.7970071 88.5864007,41.9526925 88.9195444,42.1213107 C89.2526882,42.2900926 89.6467309,42.4456143 90.1016727,42.5880393 C90.5564507,42.7304644 91.0799857,42.801677 91.6726051,42.801677 C92.1169059,42.801677 92.5188066,42.754202 92.8786346,42.6592519 C93.2381351,42.5643018 93.5503244,42.4246598 93.8148749,42.2399983 C94.079098,42.0555005 94.2829132,41.8207446 94.4258295,41.5358944 C94.568582,41.2510443 94.6401219,40.9136441 94.6401219,40.5233666 C94.6401219,40.1226119 94.5369865,39.7852118 94.3307157,39.5106751 C94.1244449,39.2364659 93.8518727,38.9940158 93.5134903,38.7828338 C93.1747805,38.5719792 92.7939981,38.3848621 92.3709792,38.2211551 C91.9477966,38.0577755 91.5113537,37.8863742 91.0618143,37.7069514 C90.6121111,37.5276922 90.1732126,37.3246955 89.7447914,37.0977976 C89.3163702,36.8710634 88.9328047,36.5942349 88.5942586,36.2671483 C88.2555488,35.9403891 87.9833041,35.5499479 87.7770332,35.0963158 C87.5707624,34.6428474 87.467627,34.0995038 87.467627,33.4666126 C87.467627,32.9077169 87.576001,32.372395 87.7929128,31.8606469 C88.0096609,31.3490625 88.3349467,30.9009964 88.7687703,30.5157939 C89.2024301,30.1309187 89.7446277,29.822331 90.3951993,29.5901945 C91.045771,29.3582216 91.8047166,29.2421534 92.6722,29.2421534 C93.0529825,29.2421534 93.4339287,29.2737488 93.8147112,29.3371034 C94.1954937,29.400458 94.5391147,29.4795285 94.8460653,29.5744786 C95.1528523,29.6694286 95.4146197,29.7722366 95.6315315,29.8830663 C95.8482796,29.9938959 96.012314,30.0914653 96.1234711,30.1757744 C96.2346281,30.2602472 96.30846,30.3340791 96.3456215,30.39727 C96.3826193,30.4606246 96.4091398,30.5318371 96.4250194,30.6109076 C96.4408989,30.6899781 96.4567785,30.7877112 96.4726581,30.9036157 C96.4885377,31.0198477 96.4963956,31.1622728 96.4963956,31.3307273 C96.4963956,31.5101502 96.4885377,31.6656718 96.4726581,31.797456 C96.4567785,31.9294038 96.430258,32.0374504 96.3932602,32.1217595 C96.3560987,32.2062324 96.311243,32.266804 96.2583656,32.303638 C96.2053246,32.3407995 96.1472086,32.358971 96.083854,32.358971 C95.9885765,32.358971 95.8510626,32.3010187 95.6713123,32.1849505 C95.4913983,32.0690459 95.2587707,31.9451197 94.973102,31.8131718 C94.6874332,31.6813877 94.3515065,31.5576252 93.9654854,31.4413932 C93.5791368,31.3254887 93.137619,31.2673727 92.6404409,31.2673727 C92.1961401,31.2673727 91.8047166,31.317467 91.4661706,31.4176557 C91.1274608,31.5180081 90.8498137,31.6604332 90.6330656,31.844931 C90.4161538,32.0295925 90.2522831,32.2484688 90.1411261,32.5015598 C90.0301327,32.7546508 89.9744723,33.0291875 89.9744723,33.3243512 C89.9744723,33.7357469 90.0800634,34.0813324 90.2919002,34.3606165 C90.5034097,34.6402281 90.7784374,34.8854612 91.1169835,35.0963158 C91.4553659,35.3074978 91.841387,35.4972342 92.2753743,35.6658524 C92.7090341,35.8346344 93.1505519,36.0088186 93.6004187,36.1879141 C94.0499582,36.367337 94.494259,36.5677143 94.9333212,36.7892099 C95.3722196,37.0107055 95.7610238,37.2796761 96.0997336,37.5961217 C96.4381159,37.9125674 96.7106881,38.2923676 96.9169589,38.7353587 C97.1232297,39.1783499 97.2263651,39.7059776 97.2263651,40.3175869 C97.2263651,41.0454283 97.0914706,41.6940354 96.8216814,42.2637358 C96.5522197,42.8334361 96.1686542,43.3135888 95.671476,43.7037026 L95.671476,43.7037026 Z M83.6584925,44.5580894 C83.563215,44.6001621 83.4387977,44.6317576 83.2855679,44.6530395 C83.1320108,44.673994 82.9444025,44.6846349 82.7222521,44.6846349 C82.4788198,44.6846349 82.2804069,44.673994 82.1271772,44.6530395 C81.97362,44.6317576 81.8519857,44.6001621 81.7622743,44.5580894 C81.6722354,44.5160167 81.6115001,44.4659224 81.579741,44.4078064 C81.5479818,44.3500178 81.5321022,44.2788053 81.5321022,44.1941687 L81.5321022,42.3113745 C80.7173325,43.2079978 79.9135311,43.8620072 79.1202069,44.2732392 C78.3267191,44.6846349 77.522754,44.8902509 76.708148,44.8902509 C75.756028,44.8902509 74.9546823,44.7319463 74.3041106,44.4155006 C73.653539,44.099055 73.1270573,43.6693241 72.7251566,43.1259806 C72.3229285,42.5828007 72.0349679,41.9499095 71.8602925,41.2273067 C71.6857808,40.5048677 71.598525,39.6267434 71.598525,38.5929337 L71.598525,29.9542788 C71.598525,29.8699697 71.6168602,29.7987572 71.6540217,29.7406412 C71.6910195,29.6828526 71.7623957,29.6299753 71.8683141,29.5825002 C71.9739052,29.5350252 72.1115828,29.5034297 72.2808558,29.4875502 C72.4499651,29.4716706 72.6616383,29.4638127 72.9155478,29.4638127 C73.1694574,29.4638127 73.3809668,29.4716706 73.5502399,29.4875502 C73.7193492,29.5034297 73.8542438,29.5350252 73.9549236,29.5825002 C74.055276,29.6299753 74.1266522,29.6828526 74.1690524,29.7406412 C74.2112888,29.7987572 74.2325707,29.8699697 74.2325707,29.9542788 L74.2325707,38.2450563 C74.2325707,39.0784886 74.293306,39.7457584 74.415104,40.2465381 C74.5365746,40.7476452 74.7217272,41.1749205 74.9705618,41.5282002 C75.2190691,41.8816436 75.5338776,42.1558529 75.9146601,42.3509916 C76.2954426,42.5462941 76.7397434,42.6436997 77.2475625,42.6436997 C77.9033728,42.6436997 78.5567274,42.4117269 79.2072991,41.9474538 C79.8578707,41.4833445 80.5482231,40.8031419 81.278029,39.9063549 L81.278029,29.9542788 C81.278029,29.8699697 81.2963641,29.7987572 81.3335256,29.7406412 C81.3705234,29.6828526 81.4418997,29.6299753 81.5478181,29.5825002 C81.6534091,29.5350252 81.7883037,29.5034297 81.9525018,29.4875502 C82.1163725,29.4716706 82.330665,29.4638127 82.5952155,29.4638127 C82.8491251,29.4638127 83.0606345,29.4716706 83.2299075,29.4875502 C83.3990169,29.5034297 83.5312921,29.5350252 83.6265696,29.5825002 C83.7218471,29.6299753 83.7932233,29.6828526 83.8408621,29.7406412 C83.8885008,29.7987572 83.9122383,29.8699697 83.9122383,29.9542788 L83.9122383,44.1941687 C83.9122383,44.2788053 83.8937394,44.3498541 83.8567417,44.4078064 C83.8197439,44.4659224 83.75377,44.5160167 83.6584925,44.5580894 L83.6584925,44.5580894 Z M69.3547568,25.0969284 L62.6583219,44.1150983 C62.6159218,44.2313302 62.5576421,44.3262803 62.4838102,44.3999485 C62.4096509,44.473944 62.3065155,44.5318963 62.174404,44.573969 C62.041965,44.6160417 61.8728557,44.6451815 61.6665849,44.6610611 C61.460314,44.6769407 61.2036215,44.6847986 60.8969982,44.6847986 C60.6642069,44.6847986 60.4607191,44.6820156 60.2860437,44.6769407 C60.111532,44.6715384 59.9607579,44.6584418 59.833885,44.6373236 C59.707012,44.6160417 59.5983106,44.5923042 59.5085992,44.5661111 C59.4185603,44.5399179 59.3419454,44.5055395 59.2784271,44.4633031 C59.2149088,44.4212304 59.1646507,44.371136 59.127653,44.31302 C59.0904915,44.2552315 59.0562767,44.1840189 59.0245175,44.0993824 L52.312203,25.0812125 C52.2274028,24.8492397 52.1825471,24.6619589 52.1773085,24.5195338 C52.1719061,24.3771087 52.2169255,24.269062 52.312203,24.1952302 C52.4074805,24.121562 52.5607103,24.074087 52.7723834,24.0528051 C52.9838929,24.0318506 53.2695616,24.0212096 53.6292259,24.0212096 C53.9252081,24.0212096 54.1607825,24.0290676 54.3352942,24.0449472 C54.5098058,24.0608267 54.6447004,24.0899666 54.7399779,24.1318756 C54.8352553,24.174112 54.9066316,24.2296087 54.9542703,24.2980382 C55.0019091,24.3667951 55.0467648,24.4537235 55.0891649,24.5591509 L60.9762324,41.7894766 L60.992112,41.7894766 L66.7205474,24.59091 C66.7523066,24.4750055 66.7893044,24.3800554 66.8317045,24.3060598 C66.8737772,24.2323917 66.9479365,24.1742757 67.0538549,24.1320393 C67.1594459,24.0899666 67.3077645,24.0608267 67.4981557,24.0451109 C67.688547,24.0292313 67.9424565,24.0213733 68.2598844,24.0213733 C68.5876258,24.0213733 68.8469377,24.0347973 69.0373289,24.0609904 C69.2277202,24.087511 69.3572124,24.1376053 69.4261331,24.2112735 C69.4947263,24.285269 69.5214106,24.393152 69.505531,24.535577 C69.4896514,24.6776747 69.4393933,24.8649555 69.3547568,25.0969284 L69.3547568,25.0969284 Z M45.8241671,35.3513713 L45.8241671,35.3513713 L42.6651131,38.5110802 L42.6651131,38.5110802 C42.2288339,38.9473593 41.5217834,38.9473593 41.0855042,38.5110802 L41.0855042,38.5110802 L37.8868331,35.3119179 L37.8887976,35.3099534 C37.4918081,34.8713824 37.5034313,34.1944539 37.9262865,33.7715987 L37.9262865,33.7715987 L41.0853405,30.6118899 L41.0853405,30.6118899 C41.5081957,30.1890347 42.1849604,30.1772478 42.6233678,30.574401 L42.6253323,30.5724365 L42.6647857,30.6118899 L42.6647857,30.6118899 L42.6647857,30.6118899 L45.8238397,33.7715987 L45.8238397,33.7715987 C46.2602826,34.2077142 46.2602826,34.9150921 45.8241671,35.3513713 L45.8241671,35.3513713 L45.8241671,35.3513713 Z M38.5581955,40.7229255 C38.9944747,41.1592046 38.9944747,41.8665826 38.5581955,42.3028617 L38.5581955,42.3028617 L38.5581955,42.3028617 L37.1365639,43.7248208 L36.8206094,44.0407753 L32.7927623,48.0694409 L31.6476318,49.2148988 L29.712615,51.150243 L29.712615,51.150243 C28.4913608,52.3718247 26.5111609,52.3718247 25.2899066,51.150243 L25.2899066,51.150243 L23.7102978,49.5703067 L22.2097594,48.0694409 L13.4827028,39.3405835 L13.1272949,38.9851756 L10.9159407,36.7733303 L10.9159407,36.7733303 L10.9159407,36.7733303 C9.69468644,35.5517487 9.69468644,33.5712213 10.9159407,32.3496397 L10.9159407,32.3496397 L13.403796,29.8612933 L13.4827028,29.7822228 L24.9739521,18.2886815 L25.4478839,17.8147498 L26.8695155,16.3929544 L26.8695155,16.3929544 C27.2923707,15.9700993 27.9691354,15.9583123 28.4075428,16.3554655 L28.4095073,16.3535011 L28.4489607,16.3929544 L28.4489607,16.3929544 L28.4489607,16.3929544 L29.7520684,17.6963896 L29.7487943,17.6996637 C29.7900484,17.7368252 29.8308115,17.7751327 29.8704286,17.8149135 C29.8836888,17.8281737 29.8959669,17.8419251 29.9088997,17.8553491 L29.909882,17.8543669 L31.2524431,19.1972554 L31.2504786,19.1992199 C31.2643937,19.2118253 31.2786362,19.2234485 31.2918965,19.2367088 C31.7280119,19.6729879 31.7280119,20.3803659 31.2918965,20.8166451 L31.2918965,20.8166451 L31.2918965,20.8166451 L29.8702649,22.2384404 L29.3963331,22.7123722 L18.3393984,33.771435 L18.3393984,33.771435 C17.903283,34.2077142 17.903283,34.9150921 18.3393984,35.3513713 L18.3393984,35.3513713 L18.3393984,35.3513713 L26.7110471,43.7246571 L26.7110471,43.7246571 C27.1339023,44.1475123 27.8106671,44.1592992 28.2490744,43.762146 L28.2510389,43.7641105 L32.3974099,39.616921 L32.7133644,39.3009664 L34.134996,37.8791711 L34.134996,37.8791711 C34.5711114,37.442892 35.2783257,37.442892 35.7146049,37.8791711 L35.7146049,37.8791711 L38.5581955,40.7229255 L38.5581955,40.7229255 L38.5581955,40.7229255 Z M100.742137,29.5903582 C100.842489,29.5482855 100.977384,29.51669 101.14682,29.4954081 C101.31593,29.4744536 101.527603,29.4638127 101.781512,29.4638127 C102.045736,29.4638127 102.262811,29.4744536 102.432084,29.4954081 C102.601193,29.51669 102.733632,29.5482855 102.828746,29.5903582 C102.924024,29.6325946 102.992617,29.6853082 103.035017,29.7484991 C103.07709,29.8118537 103.098535,29.880447 103.098535,29.9541151 L103.098535,44.194005 C103.098535,44.2786416 103.077253,44.3496904 103.035017,44.4076427 C102.992617,44.4657587 102.924024,44.515853 102.828746,44.5579257 C102.733469,44.5999984 102.601193,44.6315939 102.432084,44.6528758 C102.262811,44.6738303 102.045736,44.6844712 101.781512,44.6844712 C101.527603,44.6844712 101.31593,44.6738303 101.14682,44.6528758 C100.977547,44.6315939 100.842653,44.5999984 100.742137,44.5579257 C100.641457,44.515853 100.572864,44.4657587 100.535866,44.4076427 C100.498704,44.3498541 100.480369,44.2786416 100.480369,44.194005 L100.480369,29.9542788 C100.480369,29.8806107 100.498704,29.8118537 100.535866,29.7486628 C100.572864,29.6853082 100.641621,29.6325946 100.742137,29.5903582 L100.742137,29.5903582 Z" id="Shape" fill="#FFFFFF"></path>
    </g>
</svg>